<svg xmlns="http://www.w3.org/2000/svg" viewBox="0 0 600 900" width="600" height="900">
<!-- Placeholder art: replace with nilavilakku.png (600x900, transparent) -->
<ellipse cx="300" cy="860.0" rx="210.0" ry="30.0" fill="#9C7A16"/>
<path d="M100.0,855.0 Q300,740.0 500.0,855.0 Z" fill="#C9A227"/>
<path d="M180.0,800.0 Q300,700.0 420.0,800.0" fill="none" stroke="#7B1E2B" stroke-width="6.0"/>
<rect x="278.0" y="360.0" width="44.0" height="400.0" rx="12.0" fill="#C9A227"/>
<ellipse cx="300" cy="720.0" rx="52.0" ry="18.0" fill="#9C7A16"/>
<ellipse cx="300" cy="715.0" rx="41.6" ry="9.0" fill="#E8C75A"/>
<ellipse cx="300" cy="620.0" rx="40.0" ry="18.0" fill="#9C7A16"/>
<ellipse cx="300" cy="615.0" rx="32.0" ry="9.0" fill="#E8C75A"/>
<ellipse cx="300" cy="520.0" rx="46.0" ry="18.0" fill="#9C7A16"/>
<ellipse cx="300" cy="515.0" rx="36.800000000000004" ry="9.0" fill="#E8C75A"/>
<ellipse cx="300" cy="430.0" rx="36.0" ry="18.0" fill="#9C7A16"/>
<ellipse cx="300" cy="425.0" rx="28.8" ry="9.0" fill="#E8C75A"/>
<path d="M110.0,300.0 Q300,420.0 490.0,300.0 Z" fill="#C9A227"/>
<ellipse cx="300" cy="300.0" rx="190.0" ry="22.0" fill="#9C7A16"/>
<path d="M150.0,330.0 Q300,390.0 450.0,330.0" fill="none" stroke="#7B1E2B" stroke-width="5.0"/>
<rect x="290.0" y="150.0" width="20.0" height="150.0" fill="#C9A227"/>
<path d="M300,60.0 C345.0,110.0 345.0,150.0 300,175.0 C255.0,150.0 255.0,110.0 300,60.0 Z" fill="#C9A227"/>
<circle cx="300" cy="128.0" r="12.0" fill="#7B1E2B"/>
<path d="M140.0,212.0 C162.0,247.0 158.0,274.0 140.0,282.0 C122.0,274.0 118.0,247.0 140.0,212.0 Z" fill="#F2A900"/>
<path d="M140.0,242.0 C149.0,260.0 147.0,276.0 140.0,280.0 C133.0,276.0 131.0,260.0 140.0,242.0 Z" fill="#FFF8E7"/>
<path d="M220.0,212.0 C242.0,247.0 238.0,274.0 220.0,282.0 C202.0,274.0 198.0,247.0 220.0,212.0 Z" fill="#F2A900"/>
<path d="M220.0,242.0 C229.0,260.0 227.0,276.0 220.0,280.0 C213.0,276.0 211.0,260.0 220.0,242.0 Z" fill="#FFF8E7"/>
<path d="M300.0,212.0 C322.0,247.0 318.0,274.0 300.0,282.0 C282.0,274.0 278.0,247.0 300.0,212.0 Z" fill="#F2A900"/>
<path d="M300.0,242.0 C309.0,260.0 307.0,276.0 300.0,280.0 C293.0,276.0 291.0,260.0 300.0,242.0 Z" fill="#FFF8E7"/>
<path d="M380.0,212.0 C402.0,247.0 398.0,274.0 380.0,282.0 C362.0,274.0 358.0,247.0 380.0,212.0 Z" fill="#F2A900"/>
<path d="M380.0,242.0 C389.0,260.0 387.0,276.0 380.0,280.0 C373.0,276.0 371.0,260.0 380.0,242.0 Z" fill="#FFF8E7"/>
<path d="M460.0,212.0 C482.0,247.0 478.0,274.0 460.0,282.0 C442.0,274.0 438.0,247.0 460.0,212.0 Z" fill="#F2A900"/>
<path d="M460.0,242.0 C469.0,260.0 467.0,276.0 460.0,280.0 C453.0,276.0 451.0,260.0 460.0,242.0 Z" fill="#FFF8E7"/>
</svg>
